# xmcd
#
# Track frame offsets: 
#        150
#        19968
#        29068
#        47651
#        57776
#        91381
#        122061
#        154215
#        174559
#        198434
#        208743
#        218823
#        247313
#        269361
#        298160
#        319432
#
# Disc length: 4633 seconds
#
# Revision: 1
# Processed by: cddbd v1.5.2PL0 Copyright (c) Steve Scherf et al.
# Submitted via: ExactAudioCopy v0.95b4
#
DISCID=01121710
DTITLE=Chernyi Obelisk - Pjatnitza 13 (kontzert 1992 g)
DYEAR=2004
DGENRE=Heavy Metal
TTITLE0=Gorod v ogne (City's On Fire)
TTITLE1=Stena (nachalo)
TTITLE2=Seriy svyatoy
TTITLE3=Stena (okonchanie)
TTITLE4=Doroga v nikuda
TTITLE5=Mech (pamjati Sergeja Komarova)
TTITLE6=Voyna
TTITLE7=Ave, Caesar
TTITLE8=Ubey ih vseh
TTITLE9=Instrumental
TTITLE10=Pelmennaya
TTITLE11=Zdes i seychas
TTITLE12=Igrok
TTITLE13=Esche odin den'
TTITLE14=Polnoch
TTITLE15=Cherniy Obelisk
EXTD=
EXTT0=
EXTT1=
EXTT2=
EXTT3=
EXTT4=
EXTT5=
EXTT6=
EXTT7=
EXTT8=
EXTT9=
EXTT10=
EXTT11=
EXTT12=
EXTT13=
EXTT14=
EXTT15=
PLAYORDER=
